<svg preserveAspectRatio="none" width="100%" height="100%" overflow="visible" style="display: block;" viewBox="0 0 69.6001 69.7564" fill="none" xmlns="http://www.w3.org/2000/svg">
<g id="Group">
<path id="Vector" d="M54.3494 13.9263H28.0344C27.1045 13.9263 26.5001 13.4149 26.4536 12.6245C26.4071 11.8341 27.0348 11.1367 28.0344 11.1367H54.0937C54.9538 11.1367 55.535 11.5552 55.6512 12.299C55.7674 12.9732 55.3722 13.9263 54.3494 13.9263Z" fill="var(--fill-0, #D6A929)"/>
<path id="Vector_2" d="M59.9287 30.6636H38.2863C37.3797 30.6636 36.845 29.943 36.8915 29.1991C36.938 28.4552 37.5424 27.874 38.4722 27.874H59.673C60.5332 27.874 61.1143 28.2925 61.2306 29.0363C61.3468 29.7802 60.9516 30.6636 59.9287 30.6636Z" fill="var(--fill-0, #D6A929)"/>
<path id="Vector_3" d="M59.9289 19.5046H39.5185C38.6584 19.5046 38.147 18.9002 38.1005 18.2028C38.054 17.5054 38.5886 16.7383 39.4952 16.7383H59.65C60.5101 16.7383 61.0912 17.1567 61.2075 17.9006C61.3237 18.5748 60.9285 19.5279 59.9289 19.5279V19.5046Z" fill="var(--fill-0, #D6A929)"/>
<path id="Vector_4" d="M59.9295 25.0847H41.0766C40.2397 25.0847 39.6818 24.4803 39.6353 23.7596C39.5888 23.039 40.1932 22.3184 41.0766 22.3184H59.6738C60.5107 22.3184 61.1151 22.7368 61.2313 23.4807C61.3475 24.2246 60.9291 25.1079 59.9528 25.1079L59.9295 25.0847Z" fill="var(--fill-0, #D6A929)"/>
<path id="Vector_5" d="M68.2053 29.9888C68.9757 29.9888 69.6001 29.3643 69.6001 28.594C69.6001 27.8237 68.9757 27.1992 68.2053 27.1992C67.435 27.1992 66.8105 27.8237 66.8105 28.594C66.8105 29.3643 67.435 29.9888 68.2053 29.9888Z" fill="var(--fill-0, #D6A929)"/>
<g id="Group_2">
<path id="Vector_6" d="M19.4806 48.0285V31.4073C19.4806 30.7331 20.085 30.4774 20.5964 30.2449L33.6144 24.1079C34.1956 23.8289 34.1026 22.9455 33.8701 22.4806C33.6377 22.0157 33.1727 21.4113 32.4986 21.6902L18.7367 27.8738C14.4826 27.4554 10.1355 27.1532 5.97435 28.5944C1.81323 30.0357 2.76633 30.6401 2.76633 32.8021L2.81283 47.3311C2.81283 48.0285 3.60321 48.3307 4.09138 48.354C4.57956 48.3772 5.53267 48.0982 5.53267 47.3544V34.3596C5.57916 33.453 6.09058 32.8485 6.88096 32.8253C7.67134 32.802 8.36874 33.3832 8.36874 34.3828V64.8357C8.36874 66.1143 9.25211 66.8349 10.4609 66.8349C11.6697 66.8349 12.5531 66.091 12.5531 64.8357V47.0986C12.5531 46.2618 13.1808 45.7271 13.8549 45.7039C14.5291 45.6806 15.3194 46.192 15.3194 47.0986V64.8357C15.3194 66.091 16.2028 66.8349 17.4116 66.8349C18.5972 66.8349 19.5038 66.0678 19.5038 64.859V59.4658C19.5038 58.5824 20.0152 57.9548 20.8056 57.9083C21.596 57.8618 22.2701 58.3964 22.2701 59.2798V64.859C22.2701 67.2766 20.7126 69.0433 18.4577 69.578C16.784 69.9732 15.2497 69.1596 13.9247 68.5087C12.5299 69.2061 10.9723 69.9964 9.22886 69.5315C7.48537 69.0666 5.57916 67.3231 5.57916 65.0449L5.53267 50.9808C3.23126 51.7014 0.116232 50.4229 0.0929859 47.7728L0 32.6161C0 29.5708 1.95271 27.0369 4.74228 26.0606L8.15952 25.0842C6.25331 22.9688 5.34669 20.3652 5.9511 17.6221C6.67174 14.3908 9.20561 11.9267 12.4834 11.2758L12.5299 6.78922C12.5299 4.41808 14.5291 2.76758 16.877 2.76758H39.6353L39.705 1.04734C39.7283 0.373188 40.4024 0.0244908 40.9603 0.00124429C41.5182 -0.0220022 42.1459 0.280202 42.3551 0.931104C42.5643 1.58201 42.4249 2.13992 42.4481 2.79082H65.2064C67.7403 2.79082 69.6 4.6273 69.6 7.16117V22.8293C69.6 23.7359 69.0653 24.3636 68.275 24.3868C67.4846 24.4101 66.7872 23.7824 66.7872 22.8293V6.99844C66.7872 6.20806 66.206 5.5804 65.3459 5.5804H16.9002C15.9006 5.5804 15.2962 6.18481 15.2962 7.16117V11.299C18.0393 11.7872 20.2012 13.6702 21.2473 15.8554C22.2934 18.0405 22.1772 21.3648 20.6196 24.0381L30.5924 19.3656C32.8473 18.2962 35.2649 18.9704 36.3808 21.2485C37.4966 23.5267 36.5435 25.9211 34.2188 27.0137L22.2469 32.5696V41.1475H65.3691C66.2293 41.1475 66.7872 40.5199 66.7872 39.7295V34.3363C66.7872 33.453 67.3219 32.8253 68.1122 32.7788C68.9026 32.7323 69.6 33.3832 69.6 34.3363V39.7528C69.6 42.0774 67.7635 43.9371 65.3924 43.9371H40.5186V56.3275L53.0717 67.2766C53.6762 67.8113 53.6994 68.6481 53.281 69.2061C52.909 69.7175 51.9559 69.9964 51.3748 69.485L40.5651 60.0702V63.9988C40.5651 64.8822 40.0305 65.5331 39.2168 65.5564C38.4032 65.5796 37.7291 64.9287 37.7291 63.9988V60.0934L27.0124 69.4153C26.3848 69.9732 25.4317 69.7872 25.0132 69.1828C24.5948 68.5784 24.6645 67.7415 25.3154 67.1836L37.7523 56.3275V43.9371H22.2701V47.9588C22.2701 48.8189 21.7587 49.4698 20.9451 49.5163C20.1315 49.5628 19.4573 49.0514 19.4573 48.0285H19.4806ZM19.2249 19.2958C19.2249 16.3435 16.8305 13.9491 13.9014 13.9491C10.9723 13.9491 8.57796 16.3435 8.57796 19.2958C8.57796 22.2481 10.9723 24.6425 13.9014 24.6425C16.8305 24.6425 19.2249 22.2481 19.2249 19.2958Z" fill="var(--fill-0, #D6A929)"/>
<path id="Vector_7" d="M20.8753 55.0955C21.6456 55.0955 22.2701 54.471 22.2701 53.7007C22.2701 52.9304 21.6456 52.3059 20.8753 52.3059C20.105 52.3059 19.4805 52.9304 19.4805 53.7007C19.4805 54.471 20.105 55.0955 20.8753 55.0955Z" fill="var(--fill-0, #D6A929)"/>
</g>
</g>
</svg>
