<svg preserveAspectRatio="none" width="100%" height="100%" overflow="visible" style="display: block;" viewBox="0 0 56.8569 72.0767" fill="none" xmlns="http://www.w3.org/2000/svg">
<path id="Vector" d="M29.1782 0C29.2906 0.149918 29.4218 0.187398 29.6654 0.262357L50.3729 6.85876C51.4411 7.19608 52.0407 8.03937 52.0407 9.07006C52.0407 10.1007 51.3474 11.0565 50.2417 11.2439L43.8515 12.3495V16.4535C43.8515 17.2406 43.6453 17.934 42.9707 18.44V26.9853C42.9707 28.3908 42.0524 29.5339 40.6282 29.815C40.2722 33.2444 38.5668 36.2615 35.8496 38.3416C35.7559 38.8476 35.7559 39.2599 35.8496 39.7846L44.9384 45.7438L49.2673 47.0369C53.821 48.3861 56.8569 52.5651 56.8569 57.3438V67.3321C56.8569 69.356 55.695 71.1175 53.7648 71.7547C51.8346 72.3918 53.4837 71.8671 53.4088 71.9795H3.46721C1.63071 71.2862 0.0378245 69.8057 0.0190848 67.7631V65.4956C0.000344965 64.8397 0.412624 64.3524 1.0123 64.315C1.61197 64.2775 2.0992 64.7272 2.0992 65.3644V67.4632C2.0992 68.775 3.12989 69.8245 4.44168 69.8432H9.08915V65.4956C9.08915 64.8022 9.46394 64.2962 10.1198 64.2587C10.7757 64.2213 11.2255 64.6898 11.2255 65.3644V69.8432H45.6317V65.2519C45.6692 64.6148 46.1939 64.24 46.7374 64.2587C47.2808 64.2775 47.7306 64.6335 47.7306 65.2145V69.8432H52.3968C53.7086 69.8432 54.7393 68.7938 54.7393 67.4632V57.3438C54.7393 53.3147 51.9845 50.0352 48.1804 48.9109L44.6573 47.8802L29.0283 57.1938C28.5036 57.4937 28.1475 57.3812 27.6603 57.1001L12.1999 47.8989L8.24586 49.0608C4.5916 50.1477 2.11794 53.5021 2.0992 57.3438V60.5483C2.0992 61.1479 1.51827 61.5227 0.993556 61.504C0.468842 61.4853 0.00034954 61.1479 0.00034954 60.567V57.4937C-0.03713 52.6776 2.9425 48.5735 7.47753 47.0556C8.93923 46.5684 10.5696 46.5122 11.8626 45.6876L21.0264 39.8408C21.0826 39.2599 21.1014 38.9038 21.0264 38.3791C18.3279 36.2802 16.6225 33.2631 16.2665 29.8337C14.8985 29.5527 13.9428 28.4845 13.924 27.1165L13.8865 18.4212C13.4368 17.9715 13.0432 17.4093 13.0432 16.7159V12.3308L7.81484 11.45V16.5285C9.18284 16.5847 10.0636 17.5592 10.0636 18.8147V21.5882C10.0824 21.5882 11.4504 29.8712 11.4504 29.8712C11.694 31.3517 10.5509 32.5885 9.07041 32.5885H4.4042C3.16737 32.5885 1.83685 31.5203 2.04299 30.1898L3.42973 21.4945L3.46721 18.5337C3.46721 17.353 4.47916 16.5847 5.71599 16.5098C5.50985 14.5796 5.9596 12.6681 5.52859 10.8691C5.35993 10.1195 4.47916 9.57603 4.85395 8.50786C5.22875 7.4397 5.47236 7.17734 6.39061 6.8775L27.3042 0.224877C27.5291 0.149918 27.6041 0.093699 27.679 0H29.0845H29.1782ZM15.2171 12.387V16.6972C15.2358 16.6972 41.7339 16.6972 41.7339 16.6972V12.387C41.7526 12.387 40.0098 12.1809 40.0098 12.1809C39.3726 12.1059 38.9229 11.6374 38.9604 11.0377C38.9979 10.4381 39.4851 9.96957 40.1222 10.0445L42.8208 10.3818L50.0918 8.9951L28.5036 2.08012L6.87785 9.01384L14.1864 10.3631L25.9737 8.9014C27.679 8.69526 29.3094 8.69526 31.0147 8.9014L35.2312 9.40738C35.887 9.48233 36.2618 10.0445 36.1681 10.6817C36.0744 11.3188 35.5497 11.5999 34.9126 11.525L30.6212 11.0003C29.1969 10.8316 27.8289 10.8316 26.386 11.0003L15.2358 12.3683L15.2171 12.387ZM8.00224 18.6648H5.64102V20.6138H8.00224V18.6648ZM18.5527 20.8761V18.8147H16.0603V22.1692H17.4658C18.0842 22.1692 18.5527 21.5882 18.534 20.8761H18.5527ZM38.6043 29.1591C38.6605 28.2221 39.5038 27.7536 40.2534 27.7162C41.003 27.6787 40.9093 27.3788 40.9093 26.9853V24.3242H39.71C37.8172 24.3055 36.3181 22.8438 36.2993 20.9511V18.8335C36.2806 18.8335 20.7266 18.8335 20.7266 18.8335L20.6891 21.0823C20.6516 22.9937 19.04 24.3055 17.1473 24.343H16.0978V27.0228C16.0978 27.3976 16.3414 27.7349 16.735 27.7349C17.5595 27.7724 18.3466 28.3346 18.4028 29.2341C18.7401 34.6311 23.2377 38.8101 28.5785 38.7726C33.8631 38.7352 38.2857 34.6124 38.6231 29.1779L38.6043 29.1591ZM40.9093 22.1692V18.8147H38.4169V21.0635C38.4357 22.038 39.5975 22.3566 40.9093 22.1504V22.1692ZM9.46394 30.4522L8.17089 22.7314H5.47237L4.17932 30.4709H9.4452L9.46394 30.4522ZM33.0011 45.6314C33.5258 43.645 33.7695 41.771 33.7132 39.6909C30.3213 41.2463 26.6483 41.2463 23.2564 39.6909C23.2189 41.7897 23.4251 43.7199 23.9873 45.6314C27.0231 46.1748 29.9653 46.1748 33.0199 45.6314H33.0011ZM24.9243 52.8837C22.8629 49.473 21.5698 46.2311 21.2325 42.277L14.4487 46.6996L24.943 52.8837H24.9243ZM42.5397 46.6996L35.7371 42.2582C35.456 46.2311 34.0693 49.4356 32.1203 52.8087L42.5397 46.6808V46.6996ZM30.3213 51.5157C31.0897 50.3351 31.7268 49.192 32.214 47.9176C29.6467 48.2362 27.3042 48.2362 24.7369 47.9176C25.2054 49.117 25.7488 50.1852 26.4422 51.2158L28.4661 54.3267L30.3026 51.5157H30.3213Z" fill="var(--fill-0, #D6A929)"/>
</svg>
