<svg preserveAspectRatio="none" width="100%" height="100%" overflow="visible" style="display: block;" viewBox="0 0 62.3695 69.1993" fill="none" xmlns="http://www.w3.org/2000/svg">
<g id="Group">
<path id="Vector" d="M33.0464 0.0179895C37.7237 0.701587 41.7893 3.50794 43.912 7.42963C46.4126 12.0349 46.4665 17.4677 43.7681 21.7312L36.9142 32.5428C36.6083 33.0106 37.3819 34.8815 35.3671 35.9069L35.3311 37.7598C35.2951 39.6127 33.73 40.9259 31.8951 40.9079H30.5279C28.8009 40.9079 27.2718 39.6127 27.2358 37.8857L27.1999 35.9069C25.1671 34.8815 25.9406 32.9386 25.6708 32.5249L19.3925 22.7566C18.3671 21.1555 17.5755 19.5725 17.1798 17.7196C16.784 15.8667 17.4496 16.6042 17.9893 16.5143C18.529 16.4243 19.0507 16.7302 19.1766 17.2878C19.5364 18.8889 20.202 20.2381 21.0835 21.6053L27.6496 31.8413C28.0993 32.5428 27.5417 33.8021 28.1173 33.982L28.0094 32.219L27.5237 23.2063C27.1459 23.1164 26.912 23.1344 26.6242 23.1524C24.6993 23.2783 23.2062 21.6952 23.3861 19.7704C23.566 17.8455 24.9332 16.946 26.5343 17.036C28.1353 17.1259 29.2147 18.4212 29.3766 20.0762L29.4665 21.1196H32.8306C33.0284 20.9757 33.0284 20.472 33.0105 20.2201C32.9565 18.5471 34.1618 17.2159 35.7269 17.054C37.2919 16.8921 38.6951 17.9534 38.9649 19.5365C39.2348 21.1196 38.821 21.5153 38.1914 22.1989C36.8782 23.6561 34.8814 22.8825 34.8634 23.2963L34.2157 34.036C35.0433 34.1439 34.6115 33.0825 34.8274 31.9492L41.7713 21.0836C44.6136 16.6402 44.3078 10.9196 40.9618 6.71005C37.8676 2.80635 32.5787 0.989418 27.4337 2.62645C22.2888 4.26349 19.3565 8.18518 18.8888 13.2402C18.8348 13.8339 18.3671 14.2656 17.8094 14.2296C17.2517 14.1936 16.802 13.7259 16.856 13.0963C17.4856 6.6201 22.3068 1.40317 28.693 0.215873C28.9448 0.161904 29.1607 0.143915 29.3046 0L33.0284 0.0539681L33.0464 0.0179895ZM26.4263 19.0868C25.8866 19.0508 25.4189 19.4825 25.4189 20.0762C25.4189 20.6698 25.9406 21.1735 26.6422 21.1376C27.3438 21.1016 27.2179 21.2095 27.3438 20.9757C27.4697 20.7418 27.4877 19.1587 26.4263 19.0868ZM36.9142 20.5799C37.0941 20.2201 37.0401 19.7344 36.7882 19.4286C36.5364 19.1227 36.1046 18.9968 35.6909 19.1587C34.9173 19.4645 34.9353 20.9217 35.1692 21.1016C35.403 21.2815 36.5724 21.2815 36.8962 20.5979L36.9142 20.5799ZM32.2189 34.054L32.8485 23.1524H29.5565L30.2041 34.0899L32.2189 34.054ZM32.093 38.8571C32.8126 38.8571 33.2983 38.2635 33.2803 37.6159V36.1227H29.2687V37.6159C29.2507 38.3354 29.8083 38.8571 30.5279 38.8571H32.093Z" fill="var(--fill-0, #D6A929)"/>
<g id="Group_2">
<path id="Vector_2" d="M57.4764 69.061H4.96529C4.91132 68.989 4.85735 68.935 4.69545 68.8811C2.05101 68.1615 0.000218079 65.8409 0.000218079 62.9625V27.5054C-0.0177713 26.0843 1.07958 25.1668 2.4108 25.1668H6.49439C6.35048 23.7636 7.26794 22.6303 8.58116 22.6303H16.5325C17.1621 22.6303 17.6118 22.9361 17.6838 23.5298C17.7558 24.1234 17.414 24.6451 16.8023 24.6451L8.50921 24.6811V55.9647H15.9748C16.5685 55.9647 16.9642 56.4324 16.9642 56.9541C16.9642 57.4758 16.6044 57.9795 16.0468 57.9795H8.5272C8.5272 57.9975 8.5272 61.8832 8.5272 61.8832C8.5272 62.207 8.81503 62.4229 9.13884 62.4229H30.1505C29.6468 59.7964 27.3981 57.9975 24.7357 57.9975H20.2203C19.6446 57.9975 19.2489 57.4578 19.2669 56.9721C19.2849 56.4864 19.6087 56.0546 20.1663 55.9647H25.1494C27.1282 55.9647 28.8193 56.9001 30.2584 58.2313V45.279C30.2584 44.6313 30.6901 44.1636 31.2838 44.1636C31.8774 44.1636 32.2912 44.6313 32.2912 45.279V58.2313C33.7663 56.8641 35.4933 55.9647 37.5441 55.9647H54.0224V41.2673C54.0224 40.6917 54.6161 40.3319 55.0838 40.3499C55.5515 40.3678 56.0372 40.7096 56.0372 41.2673V61.9911C56.0372 63.3223 54.8679 64.4377 53.5187 64.4377H8.97693C7.64572 64.4377 6.47641 63.3403 6.47641 61.9911V27.1996H1.97905V62.7827C1.97905 65.3012 3.99386 66.9922 6.42243 66.9922H56.0372C58.4478 66.9922 60.3187 65.2112 60.3727 62.7827V27.2356L56.0192 27.1816V37.0398C56.0192 37.6874 55.5155 38.1012 54.9399 38.0652C54.3642 38.0292 53.9864 37.6515 53.9864 37.0398V24.6811L45.6933 24.6451C45.0817 24.6451 44.7579 23.9795 44.8118 23.5298C44.8658 23.08 45.3335 22.6123 45.9632 22.6123L54.0404 22.6483C55.2997 22.6483 56.1452 23.8356 56.0013 25.1488H59.833C61.0923 25.1488 62.3695 25.9403 62.3695 27.3615V62.8006C62.3695 65.7329 60.4087 68.1255 57.6563 68.8451C54.9039 69.5647 57.4584 68.953 57.4044 69.025L57.4764 69.061ZM54.0404 61.8292V58.0335L38.2277 57.9795C35.3854 57.9795 32.9208 59.5805 32.3812 62.4409H53.3928C53.7346 62.4409 54.0224 62.225 54.0224 61.8292H54.0404Z" fill="var(--fill-0, #D6A929)"/>
<path id="Vector_3" d="M24.5015 51.1432H13.1861C12.5565 51.1611 12.1427 50.6215 12.1607 50.0998C12.1787 49.5781 12.6464 49.1104 13.2941 49.1104H24.4475C25.0231 49.1104 25.365 49.6141 25.4009 50.0818C25.4369 50.5495 25.1311 51.1252 24.5015 51.1252V51.1432Z" fill="var(--fill-0, #D6A929)"/>
<path id="Vector_4" d="M49.382 51.1613H37.9947C37.437 51.1433 37.1312 50.5317 37.1492 50.0999C37.1672 49.6682 37.509 49.1465 38.1026 49.1465H49.2561C49.9037 49.1465 50.3714 49.5063 50.3894 50.1179C50.4074 50.7296 49.9936 51.1793 49.364 51.1793L49.382 51.1613Z" fill="var(--fill-0, #D6A929)"/>
<path id="Vector_5" d="M24.4296 41.2857H13.0962C12.5206 41.2857 12.1428 40.6921 12.1608 40.2603C12.1968 39.6307 12.6465 39.2529 13.2941 39.2529H24.3216C24.9512 39.2529 25.365 39.6847 25.383 40.2423C25.401 40.8 25.0232 41.2857 24.4116 41.2857H24.4296Z" fill="var(--fill-0, #D6A929)"/>
<path id="Vector_6" d="M49.5078 41.2853H38.1205C37.5088 41.2853 37.1311 40.7456 37.1491 40.2599C37.167 39.7742 37.5808 39.2705 38.2104 39.2705H49.3819C49.9395 39.2705 50.3173 39.6843 50.3893 40.17C50.4612 40.6557 50.1554 41.2853 49.5078 41.2853Z" fill="var(--fill-0, #D6A929)"/>
<path id="Vector_7" d="M24.5374 46.196L13.3121 46.232C12.7004 46.232 12.2687 45.9082 12.1787 45.3146C12.0888 44.7209 12.4845 44.1992 13.1142 44.1992H24.3216C24.8972 44.1992 25.293 44.523 25.4009 45.0087C25.5089 45.4945 25.221 46.196 24.5554 46.214L24.5374 46.196Z" fill="var(--fill-0, #D6A929)"/>
<path id="Vector_8" d="M49.2559 46.2324H38.0845C37.4549 46.2324 37.1131 45.6388 37.1491 45.1171C37.185 44.5954 37.6168 44.1816 38.2284 44.1816H49.4358C50.0295 44.1816 50.3893 44.7753 50.3713 45.225C50.3533 45.8547 49.8856 46.2324 49.2379 46.2324H49.2559Z" fill="var(--fill-0, #D6A929)"/>
<path id="Vector_9" d="M21.4428 36.1222H11.2968C10.7031 36.1222 10.3613 35.6005 10.3613 35.1328C10.3613 34.6651 10.7751 34.1254 11.4227 34.1074H21.2449C21.8566 34.1074 22.2523 34.4672 22.3243 35.0069C22.3962 35.5466 22.1084 36.1222 21.4428 36.1222Z" fill="var(--fill-0, #D6A929)"/>
<path id="Vector_10" d="M51.3416 36.1047H41.1956C40.584 36.1047 40.2422 35.583 40.2422 35.1152C40.2422 34.6475 40.6739 34.0898 41.3216 34.0898H51.2697C51.8094 34.0898 52.1512 34.5576 52.2051 34.9893C52.2591 35.4211 51.9893 36.1047 51.3416 36.1047Z" fill="var(--fill-0, #D6A929)"/>
</g>
<g id="Group_3">
<path id="Vector_11" d="M14.2113 5.86437C14.6971 6.29611 14.6431 6.92574 14.3373 7.30352C14.0314 7.6813 13.3119 7.78923 12.8801 7.39347L10.7214 5.50458C10.2896 5.1268 10.2177 4.49717 10.5595 4.04744C10.9013 3.5977 11.5489 3.52574 12.0166 3.92151L14.2113 5.84638V5.86437Z" fill="var(--fill-0, #D6A929)"/>
<path id="Vector_12" d="M12.0894 15.6866C11.6037 16.1183 10.9741 16.0463 10.6323 15.6686C10.2905 15.2908 10.2545 14.5892 10.6862 14.2114L12.9169 12.2506C13.3487 11.8728 13.9963 11.9448 14.3561 12.3585C14.7159 12.7723 14.6799 13.4199 14.2302 13.8336L12.1254 15.6866H12.0894Z" fill="var(--fill-0, #D6A929)"/>
</g>
</g>
</svg>
